# Blender v2.82 (sub 7) OBJ File: ''
# www.blender.org
mtllib ShittyGrass.mtl
o Plane
v -0.611559 -0.882747 0.346440
v 0.611559 -0.882747 0.346440
v -0.611559 0.882747 -0.346440
v 0.611559 0.882747 -0.346440
vt 0.000000 0.000000
vt 1.000000 0.000000
vt 1.000000 1.000000
vt 0.000000 1.000000
vn 0.0000 0.3653 0.9309
usemtl None
s off
f 1/1/1 2/2/1 4/3/1 3/4/1
o Plane.001
v -0.151646 -0.904754 -0.480497
v 0.371233 -0.904754 0.625222
v -0.665209 0.904754 -0.237640
v -0.142331 0.904754 0.868079
vt 0.000000 0.000000
vt 1.000000 0.000000
vt 1.000000 1.000000
vt 0.000000 1.000000
vn -0.8625 -0.2995 0.4079
usemtl None
s off
f 5/5/2 6/6/2 8/7/2 7/8/2
o Plane.002
v 0.474056 -0.874540 -0.221878
v -0.304641 -0.951666 0.718175
v 0.784508 0.951666 0.185115
v 0.005811 0.874540 1.125168
vt 0.000000 0.000000
vt 1.000000 0.000000
vt 1.000000 1.000000
vt 0.000000 1.000000
vn -0.7536 0.2624 -0.6027
usemtl None
s off
f 9/9/3 10/10/3 12/11/3 11/12/3
o Plane.003
v 0.481166 -0.990032 0.098317
v -0.711003 -0.900782 0.356743
v 0.605290 0.900782 0.017914
v -0.586879 0.990032 0.276340
vt 0.000000 0.000000
vt 1.000000 0.000000
vt 1.000000 1.000000
vt 0.000000 1.000000
vn -0.2137 -0.0275 -0.9765
usemtl None
s off
f 13/13/4 14/14/4 16/15/4 15/16/4
